<?xml version="1.0" encoding="UTF-8"?>
<svg id="Layer_1" data-name="Layer 1" xmlns="http://www.w3.org/2000/svg" xmlns:xlink="http://www.w3.org/1999/xlink" viewBox="0 0 138 44">
  <defs>
    <style>
      .cls-1 {
        fill: url(#linear-gradient);
      }
    </style>
    <linearGradient id="linear-gradient" x1="23.09" y1="1.26" x2="23.09" y2="41.6" gradientUnits="userSpaceOnUse">
      <stop offset="0" stop-color="#b6d4ce"/>
      <stop offset=".17" stop-color="#a2c2bc"/>
      <stop offset=".51" stop-color="#6f968e"/>
      <stop offset=".99" stop-color="#1d4f45"/>
      <stop offset="1" stop-color="#1c4e44"/>
    </linearGradient>
  </defs>
  <path class="cls-1" d="m36.13,38.6V11.74L23.3,3.19v9.79l-10.58,6.85v6.93l2.18-1.6v-4.15l8.39-5.42v23.02h-.99v-8.15l-6.31-4.7-6.07,4.71-.05,8.18h-4.88v2.18h10.1v-10l-2.18,1.6v6.22h-.84l.04-7.09,3.89-3.02,4.07,3.03v7.08h-.7v-6.22l-2.18-1.6v10h10.1s13.84,0,13.84,0v-2.21h-5.04Zm-2.22,0h-1.24v-11.82h-2.18v11.82h-1.25v-18.18h-2.23v18.18h-1.49V7.3l8.4,5.6v25.7Z"/>
  <g>
    <path d="m51.66,22.84h-.89v2.1h-1.43v-5.86h2.31c1.44,0,2.15.81,2.15,1.89,0,.97-.66,1.87-2.15,1.87Zm-.11-1.14c.57,0,.81-.28.81-.74s-.24-.74-.81-.74h-.78v1.47h.78Z"/>
    <path d="m57.38,19.08c1.44,0,2.16.83,2.16,1.85,0,.74-.4,1.43-1.3,1.7l1.35,2.32h-1.61l-1.22-2.21h-.34v2.21h-1.43v-5.86h2.4Zm-.08,1.19h-.89v1.45h.89c.53,0,.79-.28.79-.74,0-.43-.25-.72-.79-.72Z"/>
    <path d="m63.61,25c-1.66,0-3.02-1.24-3.02-3.01s1.35-3,3.02-3,3,1.24,3,3-1.34,3.01-3,3.01Zm0-1.3c.94,0,1.55-.68,1.55-1.7s-.61-1.7-1.55-1.7-1.55.66-1.55,1.7.6,1.7,1.55,1.7Z"/>
    <path d="m70.14,22.84h-.89v2.1h-1.43v-5.86h2.31c1.44,0,2.15.81,2.15,1.89,0,.97-.66,1.87-2.15,1.87Zm-.11-1.14c.57,0,.81-.28.81-.74s-.24-.74-.81-.74h-.78v1.47h.78Z"/>
    <path d="m77.04,20.23h-2.16v1.19h1.91v1.1h-1.91v1.29h2.16v1.14h-3.59v-5.86h3.59v1.14Z"/>
    <path d="m80.78,19.08c1.44,0,2.15.83,2.15,1.85,0,.74-.4,1.43-1.3,1.7l1.35,2.32h-1.61l-1.22-2.21h-.34v2.21h-1.43v-5.86h2.4Zm-.08,1.19h-.89v1.45h.89c.53,0,.79-.28.79-.74,0-.43-.25-.72-.79-.72Z"/>
    <path d="m83.93,19.08h4.54v1.14h-1.55v4.72h-1.43v-4.72h-1.55v-1.14Z"/>
    <path d="m89.14,19.08h1.62l1.14,2.46,1.13-2.46h1.6l-2.03,3.93v1.94h-1.43v-1.94l-2.03-3.93Z"/>
    <path d="m100.12,22.84h-.89v2.1h-1.43v-5.86h2.31c1.44,0,2.15.81,2.15,1.89,0,.97-.66,1.87-2.15,1.87Zm-.11-1.14c.57,0,.81-.28.81-.74s-.24-.74-.81-.74h-.78v1.47h.78Z"/>
    <path d="m106.21,25c-1.66,0-3.02-1.24-3.02-3.01s1.35-3,3.02-3,3,1.24,3,3-1.34,3.01-3,3.01Zm0-1.3c.94,0,1.55-.68,1.55-1.7s-.61-1.7-1.55-1.7-1.55.66-1.55,1.7.6,1.7,1.55,1.7Z"/>
    <path d="m112.82,19.08c1.44,0,2.16.83,2.16,1.85,0,.74-.4,1.43-1.3,1.7l1.35,2.32h-1.61l-1.22-2.21h-.34v2.21h-1.43v-5.86h2.4Zm-.08,1.19h-.89v1.45h.89c.53,0,.79-.28.79-.74,0-.43-.25-.72-.79-.72Z"/>
    <path d="m115.96,19.08h4.54v1.14h-1.55v4.72h-1.43v-4.72h-1.55v-1.14Z"/>
    <path d="m125.28,23.91h-2.19l-.35,1.04h-1.5l2.12-5.86h1.65l2.12,5.86h-1.51l-.35-1.04Zm-1.09-3.25l-.72,2.15h1.45l-.73-2.15Z"/>
    <path d="m129.64,19.08v4.76h1.87v1.1h-3.3v-5.86h1.43Z"/>
  </g>
</svg>